<svg width="281" height="153" viewBox="0 0 281 153" fill="none" xmlns="http://www.w3.org/2000/svg">
<path d="M238.712 64.1121L238.569 64.255" stroke="black" stroke-width="3" stroke-linecap="round"/>
<g filter="url(#filter0_i_262_1416)">
<path d="M249.564 46.1517C246.227 34.9893 236.344 20.106 236.344 20.106C236.344 20.106 239.748 30.5504 222.011 50.2644C214.223 59.142 207.482 66.192 207.482 72.3935C207.482 77.8769 209.74 81.9708 214.485 85.188C218.15 87.6722 225.479 87.3178 231.96 85.188C237.915 82.7727 243.471 79.2028 247.47 72.3283C252.588 63.532 252.181 54.899 249.564 46.1517Z" fill="#004994"/>
<path d="M249.685 47.2993C246.654 36.5681 237.681 22.2598 237.681 22.2598C237.681 22.2598 240.77 32.3007 224.666 51.253C217.596 59.7877 211.475 66.5654 211.475 72.5271C211.475 77.7988 213.523 81.7344 217.834 84.8273C221.162 87.2155 227.814 86.8749 233.699 84.8273C239.106 82.5054 244.152 79.0734 247.782 72.4645C252.429 64.0081 252.058 55.7085 249.685 47.2993Z" fill="#074380"/>
<path d="M249.904 48.4855C247.261 38.3648 239.434 24.8708 239.434 24.8708C239.434 24.8708 242.129 34.3404 228.085 52.2141C221.918 60.2632 216.579 66.6551 216.579 72.2776C216.579 77.2491 218.367 80.9607 222.126 83.8778C225.027 86.13 230.829 85.8088 235.962 83.8778C240.679 81.6878 245.079 78.4514 248.244 72.2184C252.297 64.2433 251.975 56.4161 249.904 48.4855Z" fill="#0A3969"/>
<path d="M250.488 49.6046C248.525 39.836 240.743 27.2209 240.743 27.2209C240.743 27.2209 243.145 36.2416 230.629 53.2677C225.134 60.9353 220.377 67.0242 220.377 72.3799C220.377 77.1158 221.969 80.6514 225.318 83.4302C227.905 85.5757 233.075 85.2697 237.65 83.4302C241.852 81.3441 245.773 78.261 248.595 72.3236C252.206 64.7266 252.334 57.1592 250.488 49.6046Z" fill="#003164"/>
<path d="M211.409 56.1392C197.796 71.1532 202.378 79.5088 202.378 79.5088C202.378 79.5088 193.666 73.895 192.561 60.513C191.645 49.4157 194.982 45.6948 198.517 39.9504C205.584 30.3546 209.315 27.1559 214.551 19.5183C220.9 9.72665 221.881 0.000244141 221.881 0.000244141C221.881 0.000244141 227.883 6.42477 229.799 11.1628C233.391 20.0405 231.502 26.4379 229.799 30.942C227.641 37.7309 219.459 46.8045 211.409 56.1392Z" fill="#377ABE"/>
<path d="M209.406 58.7369C198.697 72.1237 202.303 79.5737 202.303 79.5737C202.303 79.5737 195.449 74.5683 194.58 62.6366C193.859 52.7421 196.485 49.4244 199.264 44.3025C204.824 35.7465 208.82 32.6389 213.766 25.5237C221.162 14.8834 221.881 0 221.881 0C221.881 0 228.554 7.39495 230.061 11.6195C233.399 21.0194 231.502 28.2002 227.903 35.1196C224.302 42.039 215.738 50.4138 209.406 58.7369Z" fill="#2B659F"/>
<path d="M210.034 57.8362C198.686 71.5445 202.182 79.5085 202.182 79.5085C202.182 79.5085 196.946 73.58 196.946 61.6224C196.946 51.8306 199.628 49.5458 203.032 43.932C209.105 35.7721 211.018 34.6624 216.973 26.1765C223.452 16.45 221.815 0.0651855 221.815 0.0651855C221.815 0.0651855 228.434 7.04994 230.127 11.9458C233.401 21.411 231.306 27.939 228.229 34.6625C224.957 40.4722 218.412 47.7181 210.034 57.8362Z" fill="#1F558A"/>
</g>
<g filter="url(#filter1_i_262_1416)">
<path d="M220.636 91.4905C276.336 91.4905 241.131 86.4614 241.131 86.4614C241.131 86.4614 266.12 90.4093 220.636 90.4093C175.155 90.4093 201.352 86.4614 201.352 86.4614C201.352 86.4614 164.938 91.4905 220.636 91.4905Z" fill="#396C21"/>
</g>
<g filter="url(#filter2_i_262_1416)">
<path d="M220.458 96.3263C316.634 96.3263 255.844 86.8484 255.844 86.8484C255.844 86.8484 298.993 94.2887 220.458 94.2887C141.923 94.2887 187.159 86.8484 187.159 86.8484C187.159 86.8484 124.283 96.3263 220.458 96.3263Z" fill="#1B5500"/>
</g>
<path d="M252.613 74.4189C251.31 76.4988 250.563 80.0646 250.563 80.0646C250.563 80.0646 251.661 78.0452 256.777 77.0934C259.057 76.6413 260.936 76.3479 261.842 75.3881C262.645 74.5396 262.959 73.6388 262.831 72.579C262.734 71.7608 261.759 70.9482 260.632 70.5107C259.528 70.1796 258.307 70.0743 256.798 70.6651C254.866 71.4208 253.563 72.7554 252.613 74.4189Z" fill="#07417D"/>
<path d="M189.892 77.9394C191.23 78.1833 193.262 77.7789 193.262 77.7789C193.262 77.7789 191.992 77.6344 190.579 75.0235C189.935 73.867 189.446 72.8949 188.774 72.6134C188.18 72.3647 187.644 72.3974 187.103 72.7107C186.684 72.9527 186.424 73.6781 186.391 74.4019C186.41 75.0879 186.57 75.7876 187.152 76.4864C187.896 77.3806 188.838 77.7957 189.892 77.9394Z" fill="#07417D"/>
<path d="M21.4289 96.3261L22.9997 89.1887H36.8461L38.4169 96.3261H46.4455L37.5442 56.8672H22.3016L13.4003 96.3261H21.4289ZM31.3192 63.4824L35.3335 82.2254H24.5124L28.5266 63.4824H31.3192ZM66.3752 97.0225C63.3499 97.0225 60.7901 96.6356 58.6956 95.8619C56.6012 95.0495 54.9141 93.8116 53.6342 92.1481C52.3542 90.4847 51.4234 88.3763 50.8416 85.8231C50.2598 83.2699 49.9689 80.2524 49.9689 76.7708C49.9689 73.2891 50.2598 70.2717 50.8416 67.7184C51.4234 65.1265 52.3542 62.9795 53.6342 61.2773C54.9529 59.5365 56.64 58.2599 58.6956 57.4475C60.7901 56.5964 63.3499 56.1709 66.3752 56.1709C69.4004 56.1709 71.9408 56.5964 73.9965 57.4475C76.0909 58.2599 77.778 59.5365 79.058 61.2773C80.3767 62.9795 81.3269 65.1265 81.9087 67.7184C82.4905 70.3103 82.7814 73.3471 82.7814 76.8288C82.7814 85.4169 80.7451 91.2004 76.6727 94.1791L81.5014 101.955L74.171 105.378L68.935 96.8484C68.5471 96.9645 67.6939 97.0225 66.3752 97.0225ZM59.9756 87.0417C61.0616 89.0533 63.1948 90.0591 66.3752 90.0591C67.9654 90.0591 69.2647 89.827 70.2731 89.3628C71.3203 88.8599 72.1542 88.0862 72.7747 87.0417C73.4341 85.9972 73.8801 84.6432 74.1128 82.9797C74.3843 81.2776 74.5201 79.2273 74.5201 76.8288C74.5201 74.4303 74.3843 72.38 74.1128 70.6779C73.8413 68.937 73.3953 67.5057 72.7747 66.3838C72.1542 65.2619 71.3203 64.4495 70.2731 63.9466C69.2259 63.405 67.9266 63.1342 66.3752 63.1342C64.8237 63.1342 63.5244 63.405 62.4772 63.9466C61.43 64.4495 60.5961 65.2619 59.9756 66.3838C59.355 67.5057 58.909 68.937 58.6375 70.6779C58.366 72.38 58.2302 74.4303 58.2302 76.8288C58.2302 81.5871 58.812 84.9914 59.9756 87.0417ZM97.3458 56.8672V83.1538C97.3458 87.7574 99.6924 90.0591 104.385 90.0591C109.078 90.0591 111.425 87.7574 111.425 83.1538V56.8672H119.454V82.9797C119.454 87.8541 118.212 91.4131 115.73 93.6569C113.248 95.9006 109.466 97.0225 104.385 97.0225C99.3045 97.0225 95.5229 95.9006 93.0407 93.6569C90.5584 91.4131 89.3173 87.8541 89.3173 82.9797V56.8672H97.3458ZM132.444 96.3261L134.015 89.1887H147.862L149.432 96.3261H157.461L148.56 56.8672H133.317L124.416 96.3261H132.444ZM142.335 63.4824L146.349 82.2254H135.528L139.542 63.4824H142.335Z" fill="#002E5D"/>
<path d="M9.0176 149.132L10.5884 141.994H24.4348L26.0056 149.132H34.0342L25.1329 109.673H9.89027L0.989025 149.132H9.0176ZM18.9079 116.288L22.9222 135.031H12.101L16.1153 116.288H18.9079ZM47.3315 149.132V116.636H47.9133L57.8036 149.132H71.01V109.673H62.9814V142.168H62.3996L52.8584 109.673H39.303V149.132H47.3315ZM84.3537 149.132L85.9245 141.994H99.7709L101.342 149.132H109.37L100.469 109.673H85.2264L76.3251 149.132H84.3537ZM94.244 116.288L98.2583 135.031H87.4372L91.4514 116.288H94.244ZM137.154 142.052H122.667V109.673H114.639V149.132H137.154V142.052ZM158.021 133.174L170.122 109.673H161.221L153.949 125.398L146.676 109.673H137.775L149.993 133.174V149.132H158.021V133.174ZM181.504 116.752V149.132H189.533V116.752H200.005V109.673H170.916V116.752H181.504ZM213.116 149.132V109.673H205.087V149.132H213.116ZM246.634 141.936L246.809 148.493C244.714 148.919 242.756 149.248 240.933 149.48C239.11 149.712 237.365 149.828 235.697 149.828C232.4 149.828 229.763 149.422 227.785 148.609C225.806 147.797 224.255 146.501 223.13 144.721C222.006 142.942 221.23 140.853 220.803 138.454C220.377 136.056 220.163 133.039 220.163 129.402C220.163 125.572 220.396 122.361 220.861 119.769C221.366 117.178 222.199 115.089 223.363 113.502C224.527 111.878 226.078 110.717 228.017 110.021C229.957 109.324 232.381 108.976 235.29 108.976C238.664 108.976 242.523 109.499 246.867 110.543L246.634 116.926C242.794 116.346 239.614 116.056 237.093 116.056C235.813 116.056 234.727 116.133 233.835 116.288C232.982 116.443 232.245 116.713 231.624 117.1C231.043 117.448 230.558 117.951 230.17 118.609C229.821 119.228 229.51 120.002 229.239 120.93C228.967 121.897 228.754 123.174 228.599 124.76C228.483 126.346 228.424 128.3 228.424 130.621C228.424 132.903 228.541 134.818 228.774 136.365C229.006 137.913 229.414 139.17 229.995 140.137C230.616 141.066 231.45 141.743 232.497 142.168C233.544 142.555 234.863 142.749 236.453 142.749C238.082 142.749 239.73 142.69 241.398 142.574C243.066 142.42 244.811 142.207 246.634 141.936ZM265.482 115.94C261.254 115.94 259.141 117.332 259.141 120.118C259.141 121.356 259.664 122.303 260.711 122.961C261.254 123.271 262.127 123.677 263.329 124.18C264.532 124.644 266.122 125.185 268.1 125.804C270.039 126.423 271.668 127.062 272.987 127.719C274.306 128.377 275.372 129.151 276.187 130.04C277.001 130.891 277.583 131.897 277.932 133.058C278.32 134.218 278.514 135.611 278.514 137.236C278.514 139.325 278.184 141.162 277.525 142.749C276.865 144.296 275.935 145.592 274.732 146.636C273.53 147.681 272.095 148.474 270.427 149.016C268.759 149.557 266.898 149.828 264.842 149.828C261.817 149.828 258.113 149.364 253.73 148.435L251.636 148.029L252.45 141.82C257.647 142.516 261.623 142.865 264.377 142.865C268.488 142.865 270.543 141.162 270.543 137.758C270.543 136.52 270.078 135.553 269.147 134.857C268.139 134.16 266.238 133.406 263.446 132.594C261.196 131.936 259.276 131.259 257.686 130.563C256.135 129.828 254.874 128.996 253.905 128.067C252.935 127.1 252.237 126.017 251.81 124.818C251.383 123.619 251.17 122.245 251.17 120.698C251.17 116.713 252.353 113.773 254.719 111.878C257.124 109.943 260.44 108.976 264.667 108.976C266.103 108.976 267.732 109.073 269.554 109.266C271.377 109.46 273.394 109.75 275.605 110.137L277.699 110.543L277.059 116.868C274.306 116.559 271.959 116.326 270.02 116.172C268.119 116.017 266.607 115.94 265.482 115.94Z" fill="#002E5D"/>
<defs>
<filter id="filter0_i_262_1416" x="192.407" y="0" width="59.2517" height="108.921" filterUnits="userSpaceOnUse" color-interpolation-filters="sRGB">
<feFlood flood-opacity="0" result="BackgroundImageFix"/>
<feBlend mode="normal" in="SourceGraphic" in2="BackgroundImageFix" result="shape"/>
<feColorMatrix in="SourceAlpha" type="matrix" values="0 0 0 0 0 0 0 0 0 0 0 0 0 0 0 0 0 0 127 0" result="hardAlpha"/>
<feOffset dy="22"/>
<feGaussianBlur stdDeviation="12.5"/>
<feComposite in2="hardAlpha" operator="arithmetic" k2="-1" k3="1"/>
<feColorMatrix type="matrix" values="0 0 0 0 0 0 0 0 0 0 0 0 0 0 0 0 0 0 0.38 0"/>
<feBlend mode="normal" in2="shape" result="effect1_innerShadow_262_1416"/>
</filter>
<filter id="filter1_i_262_1416" x="189.66" y="79.4614" width="62.4447" height="12.0291" filterUnits="userSpaceOnUse" color-interpolation-filters="sRGB">
<feFlood flood-opacity="0" result="BackgroundImageFix"/>
<feBlend mode="normal" in="SourceGraphic" in2="BackgroundImageFix" result="shape"/>
<feColorMatrix in="SourceAlpha" type="matrix" values="0 0 0 0 0 0 0 0 0 0 0 0 0 0 0 0 0 0 127 0" result="hardAlpha"/>
<feOffset dy="-11"/>
<feGaussianBlur stdDeviation="3.5"/>
<feComposite in2="hardAlpha" operator="arithmetic" k2="-1" k3="1"/>
<feColorMatrix type="matrix" values="0 0 0 0 0 0 0 0 0 0 0 0 0 0 0 0 0 0 0.3 0"/>
<feBlend mode="normal" in2="shape" result="effect1_innerShadow_262_1416"/>
</filter>
<filter id="filter2_i_262_1416" x="166.971" y="79.8484" width="107.823" height="16.4778" filterUnits="userSpaceOnUse" color-interpolation-filters="sRGB">
<feFlood flood-opacity="0" result="BackgroundImageFix"/>
<feBlend mode="normal" in="SourceGraphic" in2="BackgroundImageFix" result="shape"/>
<feColorMatrix in="SourceAlpha" type="matrix" values="0 0 0 0 0 0 0 0 0 0 0 0 0 0 0 0 0 0 127 0" result="hardAlpha"/>
<feOffset dy="-11"/>
<feGaussianBlur stdDeviation="3.5"/>
<feComposite in2="hardAlpha" operator="arithmetic" k2="-1" k3="1"/>
<feColorMatrix type="matrix" values="0 0 0 0 0 0 0 0 0 0 0 0 0 0 0 0 0 0 0.3 0"/>
<feBlend mode="normal" in2="shape" result="effect1_innerShadow_262_1416"/>
</filter>
</defs>
</svg>
