<svg width="163" height="146" viewBox="0 0 163 146" fill="none" xmlns="http://www.w3.org/2000/svg">
<path d="M103.788 84.2361L103.6 84.4237" stroke="black" stroke-width="3" stroke-linecap="round"/>
<g filter="url(#filter0_i_262_1299)">
<path d="M117.975 60.6622C113.611 46.0108 100.692 26.4756 100.692 26.4756C100.692 26.4756 105.141 40.1845 81.9545 66.0601C71.7731 77.7127 62.9606 86.9662 62.9606 95.1059C62.9606 102.303 65.9103 107.676 72.1155 111.899C76.9066 115.16 86.4862 114.695 94.9595 111.899C102.745 108.729 110.009 104.044 115.237 95.0202C121.925 83.4747 121.394 72.1434 117.975 60.6622Z" fill="#C5C5C5"/>
<path d="M118.13 62.1685C114.168 48.0833 102.438 29.3027 102.438 29.3027C102.438 29.3027 106.477 42.482 85.4253 67.3578C76.181 78.5603 68.1796 87.4563 68.1796 95.2815C68.1796 102.201 70.8578 107.366 76.4918 111.426C80.8419 114.561 89.5399 114.113 97.2332 111.426C104.302 108.378 110.898 103.874 115.644 95.1991C121.717 84.0997 121.234 73.2062 118.13 62.1685Z" fill="#D2D2D2"/>
<path d="M118.416 63.7253C114.961 50.4416 104.731 32.73 104.731 32.73C104.731 32.73 108.254 45.1592 89.8936 68.6194C81.8315 79.1842 74.8532 87.5741 74.8532 94.9539C74.8532 101.479 77.1889 106.351 82.1025 110.18C85.8964 113.136 93.4821 112.714 100.192 110.18C106.357 107.305 112.109 103.057 116.248 94.8761C121.545 84.4083 121.124 74.1349 118.416 63.7253Z" fill="#E7E7E7"/>
<path d="M119.366 65.3796C116.799 52.558 106.627 36 106.627 36C106.627 36 109.766 47.8399 93.4039 70.1878C86.2189 80.2517 80 88.2437 80 95.2736C80 101.49 82.0816 106.13 86.4605 109.777C89.8416 112.594 96.6019 112.192 102.581 109.777C108.076 107.039 113.202 102.993 116.891 95.1996C121.611 85.2282 121.779 75.2956 119.366 65.3796Z" fill="white"/>
<path d="M121.649 99.9708C120.459 101.874 119.778 105.136 119.778 105.136C119.778 105.136 120.78 103.289 125.449 102.418C127.529 102.004 129.244 101.736 130.072 100.858C130.803 100.081 131.09 99.2572 130.974 98.2876C130.884 97.539 129.995 96.7956 128.966 96.3953C127.959 96.0923 126.844 95.9961 125.467 96.5365C123.706 97.228 122.516 98.4489 121.649 99.9708Z" fill="white"/>
<path d="M38.8483 104.468C40.2912 104.732 42.481 104.295 42.481 104.295C42.481 104.295 41.112 104.138 39.589 101.317C38.8944 100.067 38.3672 99.0164 37.6431 98.7123C37.0028 98.4435 36.4257 98.4788 35.8416 98.8175C35.3906 99.079 35.1102 99.8628 35.0742 100.645C35.0947 101.386 35.2675 102.143 35.8946 102.898C36.697 103.864 37.7121 104.313 38.8483 104.468Z" fill="white"/>
<path d="M68.0941 73.7718C50.2979 93.4784 56.287 104.445 56.287 104.445C56.287 104.445 44.8978 97.077 43.4533 79.5124C42.2555 64.9467 46.6189 60.0629 51.2391 52.523C60.4794 39.9279 65.3562 35.7295 72.2009 25.7049C80.5 12.8529 81.7834 0.0864258 81.7834 0.0864258C81.7834 0.0864258 89.6299 8.51896 92.1359 14.7378C96.8314 26.3903 94.3604 34.787 92.1359 40.699C89.3125 49.6098 78.6177 61.5194 68.0941 73.7718Z" fill="#D0D0D0"/>
<path d="M65.4749 77.181C51.4764 94.7519 56.1874 104.531 56.1874 104.531C56.1874 104.531 47.2286 97.9605 46.0924 82.2994C45.1501 69.3123 48.5825 64.9578 52.2167 58.235C59.4852 47.005 64.709 42.9261 71.1742 33.5869C80.8422 19.6209 81.7834 0.0856934 81.7834 0.0856934C81.7834 0.0856934 90.5069 9.79197 92.4782 15.3369C96.8416 27.6749 94.3604 37.0998 89.6547 46.1819C84.949 55.2641 73.7529 66.2566 65.4749 77.181Z" fill="#F3F3F3"/>
<path d="M66.2973 75.9989C51.4598 93.9918 56.0303 104.445 56.0303 104.445C56.0303 104.445 49.1857 96.6635 49.1857 80.9683C49.1857 68.1162 52.6936 65.1174 57.1426 57.7489C65.0828 47.0388 67.5807 45.5822 75.3665 34.4437C83.8368 21.6773 81.6978 0.171387 81.6978 0.171387C81.6978 0.171387 90.351 9.33923 92.5637 15.7653C96.8416 28.189 94.1038 36.7571 90.0825 45.5822C85.8046 53.2078 77.2488 62.7183 66.2973 75.9989Z" fill="white"/>
</g>
<path d="M79.1263 119.27C163.863 119.27 110.304 112 110.304 112C110.304 112 148.321 117.707 79.1263 117.707C9.93132 117.707 49.787 112 49.787 112C49.787 112 -5.61121 119.27 79.1263 119.27Z" fill="#CACACA"/>
<path d="M79.3785 124C220.31 124 131.231 112 131.231 112C131.231 112 194.46 121.42 79.3785 121.42C-35.7036 121.42 30.5827 112 30.5827 112C30.5827 112 -61.5535 124 79.3785 124Z" fill="white"/>
<path d="M30.4048 143.087L30.7698 141.422H33.9871L34.3521 143.087H36.2176L34.1493 133.881H30.6076L28.5393 143.087H30.4048ZM32.7029 135.424L33.6356 139.797H31.1213L32.054 135.424H32.7029ZM40.8484 143.249C40.1454 143.249 39.5506 143.159 39.064 142.978C38.5773 142.789 38.1853 142.5 37.8879 142.112C37.5905 141.724 37.3742 141.232 37.239 140.636C37.1038 140.041 37.0362 139.337 37.0362 138.525C37.0362 137.712 37.1038 137.008 37.239 136.413C37.3742 135.808 37.5905 135.307 37.8879 134.91C38.1944 134.504 38.5864 134.206 39.064 134.017C39.5506 133.818 40.1454 133.719 40.8484 133.719C41.5513 133.719 42.1417 133.818 42.6193 134.017C43.1059 134.206 43.4979 134.504 43.7953 134.91C44.1018 135.307 44.3226 135.808 44.4577 136.413C44.5929 137.017 44.6605 137.726 44.6605 138.538C44.6605 140.542 44.1874 141.891 43.2411 142.586L44.3631 144.4L42.6598 145.199L41.4432 143.209C41.3532 143.236 41.1548 143.249 40.8484 143.249ZM39.3614 140.921C39.6138 141.39 40.1095 141.625 40.8484 141.625C41.218 141.625 41.5198 141.571 41.7541 141.462C41.9974 141.345 42.1913 141.164 42.3354 140.921C42.4887 140.677 42.5922 140.361 42.6463 139.973C42.7094 139.576 42.7409 139.098 42.7409 138.538C42.7409 137.979 42.7094 137.5 42.6463 137.103C42.5833 136.697 42.4796 136.363 42.3354 136.101C42.1913 135.84 41.9974 135.65 41.7541 135.533C41.5108 135.406 41.2089 135.343 40.8484 135.343C40.488 135.343 40.186 135.406 39.9427 135.533C39.6993 135.65 39.5056 135.84 39.3614 136.101C39.2173 136.363 39.1136 136.697 39.0505 137.103C38.9875 137.5 38.9558 137.979 38.9558 138.538C38.9558 139.648 39.091 140.442 39.3614 140.921ZM48.0448 133.881V140.014C48.0448 141.088 48.59 141.625 49.6806 141.625C50.7709 141.625 51.3163 141.088 51.3163 140.014V133.881H53.1818V139.973C53.1818 141.11 52.8933 141.941 52.3166 142.464C51.7398 142.988 50.8611 143.249 49.6806 143.249C48.4998 143.249 47.6212 142.988 47.0445 142.464C46.4677 141.941 46.1793 141.11 46.1793 139.973V133.881H48.0448ZM56.2003 143.087L56.5653 141.422H59.7826L60.1476 143.087H62.0131L59.9448 133.881H56.403L54.3348 143.087H56.2003ZM58.4984 135.424L59.4311 139.797H56.9167L57.8495 135.424H58.4984ZM67.3026 143.087L67.6676 141.422H70.885L71.25 143.087H73.1155L71.0472 133.881H67.5054L65.4371 143.087H67.3026ZM69.6007 135.424L70.5335 139.797H68.0191L68.9519 135.424H69.6007ZM76.2051 143.087V135.506H76.3403L78.6384 143.087H81.7071V133.881H79.8416V141.462H79.7064L77.4894 133.881H74.3396V143.087H76.2051ZM84.8077 143.087L85.1727 141.422H88.39L88.755 143.087H90.6205L88.5522 133.881H85.0105L82.9422 143.087H84.8077ZM87.1058 135.424L88.0385 139.797H85.5242L86.4569 135.424H87.1058ZM97.0762 141.435H93.7102V133.881H91.8447V143.087H97.0762V141.435ZM101.925 139.364L104.737 133.881H102.668L100.979 137.55L99.2889 133.881H97.2207L100.059 139.364V143.087H101.925V139.364ZM107.381 135.533V143.087H109.247V135.533H111.68V133.881H104.921V135.533H107.381ZM114.727 143.087V133.881H112.861V143.087H114.727ZM122.515 141.408L122.556 142.938C122.069 143.037 121.614 143.114 121.19 143.168C120.767 143.222 120.361 143.249 119.974 143.249C119.208 143.249 118.595 143.154 118.135 142.965C117.676 142.775 117.315 142.473 117.054 142.058C116.792 141.643 116.612 141.155 116.513 140.596C116.414 140.036 116.364 139.332 116.364 138.484C116.364 137.59 116.418 136.841 116.527 136.237C116.644 135.632 116.837 135.145 117.108 134.775C117.378 134.396 117.739 134.125 118.189 133.962C118.64 133.8 119.203 133.719 119.879 133.719C120.663 133.719 121.56 133.841 122.569 134.084L122.515 135.573C121.623 135.438 120.884 135.37 120.298 135.37C120.001 135.37 119.748 135.388 119.541 135.424C119.343 135.461 119.172 135.524 119.027 135.614C118.892 135.695 118.78 135.813 118.689 135.966C118.608 136.11 118.536 136.291 118.473 136.507C118.41 136.733 118.361 137.031 118.324 137.401C118.297 137.771 118.284 138.227 118.284 138.768C118.284 139.301 118.311 139.747 118.365 140.108C118.419 140.47 118.514 140.763 118.649 140.988C118.793 141.205 118.987 141.363 119.23 141.462C119.473 141.553 119.78 141.598 120.149 141.598C120.528 141.598 120.911 141.584 121.298 141.557C121.686 141.521 122.092 141.471 122.515 141.408ZM126.894 135.343C125.912 135.343 125.421 135.668 125.421 136.318C125.421 136.607 125.543 136.828 125.786 136.981C125.912 137.053 126.115 137.148 126.394 137.266C126.674 137.374 127.043 137.5 127.503 137.645C127.954 137.789 128.332 137.938 128.638 138.091C128.945 138.245 129.193 138.425 129.382 138.633C129.571 138.831 129.706 139.066 129.787 139.337C129.878 139.608 129.923 139.932 129.923 140.312C129.923 140.799 129.846 141.228 129.693 141.598C129.54 141.959 129.323 142.261 129.044 142.505C128.765 142.748 128.431 142.933 128.044 143.06C127.656 143.186 127.224 143.249 126.746 143.249C126.043 143.249 125.182 143.141 124.164 142.924L123.677 142.83L123.866 141.381C125.074 141.543 125.998 141.625 126.638 141.625C127.593 141.625 128.071 141.228 128.071 140.433C128.071 140.145 127.962 139.919 127.746 139.757C127.512 139.594 127.07 139.418 126.421 139.229C125.899 139.075 125.453 138.917 125.083 138.755C124.723 138.583 124.43 138.389 124.204 138.173C123.979 137.947 123.817 137.694 123.718 137.415C123.619 137.135 123.569 136.814 123.569 136.453C123.569 135.524 123.844 134.838 124.394 134.396C124.952 133.944 125.723 133.719 126.705 133.719C127.039 133.719 127.417 133.741 127.841 133.786C128.264 133.832 128.733 133.899 129.247 133.99L129.733 134.084L129.585 135.56C128.945 135.488 128.4 135.434 127.949 135.397C127.507 135.361 127.156 135.343 126.894 135.343Z" fill="#7A7A7A"/>
<path d="M31.6026 143.087L31.9676 141.422H35.1849L35.5499 143.087H37.4154L35.3471 133.881H31.8054L29.7371 143.087H31.6026ZM33.9007 135.424L34.8335 139.797H32.3191L33.2518 135.424H33.9007ZM42.0462 143.249C41.3432 143.249 40.7484 143.159 40.2618 142.978C39.7751 142.789 39.3831 142.5 39.0857 142.112C38.7883 141.724 38.572 141.232 38.4368 140.636C38.3016 140.041 38.2341 139.337 38.2341 138.525C38.2341 137.712 38.3016 137.008 38.4368 136.413C38.572 135.808 38.7883 135.307 39.0857 134.91C39.3922 134.504 39.7842 134.206 40.2618 134.017C40.7484 133.818 41.3432 133.719 42.0462 133.719C42.7491 133.719 43.3395 133.818 43.8171 134.017C44.3037 134.206 44.6958 134.504 44.9932 134.91C45.2996 135.307 45.5204 135.808 45.6555 136.413C45.7907 137.017 45.8583 137.726 45.8583 138.538C45.8583 140.542 45.3852 141.891 44.4389 142.586L45.5609 144.4L43.8576 145.199L42.641 143.209C42.551 143.236 42.3527 143.249 42.0462 143.249ZM40.5592 140.921C40.8116 141.39 41.3073 141.625 42.0462 141.625C42.4158 141.625 42.7177 141.571 42.9519 141.462C43.1952 141.345 43.3891 141.164 43.5332 140.921C43.6865 140.677 43.79 140.361 43.8441 139.973C43.9073 139.576 43.9387 139.098 43.9387 138.538C43.9387 137.979 43.9073 137.5 43.8441 137.103C43.7811 136.697 43.6774 136.363 43.5332 136.101C43.3891 135.84 43.1952 135.65 42.9519 135.533C42.7086 135.406 42.4067 135.343 42.0462 135.343C41.6858 135.343 41.3838 135.406 41.1405 135.533C40.8971 135.65 40.7034 135.84 40.5592 136.101C40.4151 136.363 40.3114 136.697 40.2483 137.103C40.1853 137.5 40.1536 137.979 40.1536 138.538C40.1536 139.648 40.2888 140.442 40.5592 140.921ZM49.2427 133.881V140.014C49.2427 141.088 49.7878 141.625 50.8784 141.625C51.9687 141.625 52.5141 141.088 52.5141 140.014V133.881H54.3796V139.973C54.3796 141.11 54.0911 141.941 53.5144 142.464C52.9376 142.988 52.0589 143.249 50.8784 143.249C49.6977 143.249 48.819 142.988 48.2423 142.464C47.6655 141.941 47.3772 141.11 47.3772 139.973V133.881H49.2427ZM57.3981 143.087L57.7631 141.422H60.9804L61.3454 143.087H63.2109L61.1426 133.881H57.6009L55.5326 143.087H57.3981ZM59.6962 135.424L60.6289 139.797H58.1145L59.0473 135.424H59.6962ZM68.5005 143.087L68.8654 141.422H72.0828L72.4478 143.087H74.3133L72.245 133.881H68.7032L66.6349 143.087H68.5005ZM70.7986 135.424L71.7313 139.797H69.2169L70.1497 135.424H70.7986ZM77.403 143.087V135.506H77.5382L79.8362 143.087H82.9049V133.881H81.0394V141.462H80.9042L78.6872 133.881H75.5375V143.087H77.403ZM86.0055 143.087L86.3705 141.422H89.5878L89.9528 143.087H91.8183L89.75 133.881H86.2083L84.14 143.087H86.0055ZM88.3036 135.424L89.2364 139.797H86.722L87.6547 135.424H88.3036ZM98.274 141.435H94.908V133.881H93.0425V143.087H98.274V141.435ZM103.123 139.364L105.935 133.881H103.866L102.177 137.55L100.487 133.881H98.4185L101.257 139.364V143.087H103.123V139.364ZM108.579 135.533V143.087H110.445V135.533H112.878V133.881H106.119V135.533H108.579ZM115.925 143.087V133.881H114.059V143.087H115.925ZM123.713 141.408L123.753 142.938C123.267 143.037 122.812 143.114 122.388 143.168C121.965 143.222 121.559 143.249 121.171 143.249C120.405 143.249 119.793 143.154 119.333 142.965C118.873 142.775 118.513 142.473 118.252 142.058C117.99 141.643 117.81 141.155 117.711 140.596C117.612 140.036 117.562 139.332 117.562 138.484C117.562 137.59 117.616 136.841 117.724 136.237C117.842 135.632 118.035 135.145 118.306 134.775C118.576 134.396 118.937 134.125 119.387 133.962C119.838 133.8 120.401 133.719 121.077 133.719C121.861 133.719 122.758 133.841 123.767 134.084L123.713 135.573C122.821 135.438 122.082 135.37 121.496 135.37C121.199 135.37 120.946 135.388 120.739 135.424C120.541 135.461 120.369 135.524 120.225 135.614C120.09 135.695 119.977 135.813 119.887 135.966C119.806 136.11 119.734 136.291 119.671 136.507C119.608 136.733 119.558 137.031 119.522 137.401C119.495 137.771 119.482 138.227 119.482 138.768C119.482 139.301 119.509 139.747 119.563 140.108C119.617 140.47 119.712 140.763 119.847 140.988C119.991 141.205 120.185 141.363 120.428 141.462C120.671 141.553 120.978 141.598 121.347 141.598C121.726 141.598 122.109 141.584 122.496 141.557C122.884 141.521 123.289 141.471 123.713 141.408ZM128.092 135.343C127.11 135.343 126.619 135.668 126.619 136.318C126.619 136.607 126.74 136.828 126.984 136.981C127.11 137.053 127.313 137.148 127.592 137.266C127.872 137.374 128.241 137.5 128.701 137.645C129.151 137.789 129.53 137.938 129.836 138.091C130.143 138.245 130.39 138.425 130.58 138.633C130.769 138.831 130.904 139.066 130.985 139.337C131.075 139.608 131.12 139.932 131.12 140.312C131.12 140.799 131.044 141.228 130.891 141.598C130.737 141.959 130.521 142.261 130.242 142.505C129.962 142.748 129.629 142.933 129.241 143.06C128.854 143.186 128.421 143.249 127.944 143.249C127.241 143.249 126.38 143.141 125.362 142.924L124.875 142.83L125.064 141.381C126.272 141.543 127.196 141.625 127.835 141.625C128.791 141.625 129.268 141.228 129.268 140.433C129.268 140.145 129.16 139.919 128.944 139.757C128.71 139.594 128.268 139.418 127.619 139.229C127.097 139.075 126.65 138.917 126.281 138.755C125.92 138.583 125.628 138.389 125.402 138.173C125.177 137.947 125.015 137.694 124.916 137.415C124.816 137.135 124.767 136.814 124.767 136.453C124.767 135.524 125.042 134.838 125.591 134.396C126.15 133.944 126.921 133.719 127.903 133.719C128.237 133.719 128.615 133.741 129.039 133.786C129.462 133.832 129.931 133.899 130.444 133.99L130.931 134.084L130.782 135.56C130.143 135.488 129.597 135.434 129.147 135.397C128.705 135.361 128.354 135.343 128.092 135.343Z" fill="#858585"/>
<path d="M30.7648 143.087L31.265 141.097H34.8203L35.3205 143.087H36.8345L34.5364 133.814H31.5489L29.2643 143.087H30.7648ZM33.3873 135.073L34.5229 139.77H31.5624L32.7114 135.073H33.3873ZM41.5203 143.236C40.8174 143.236 40.2226 143.145 39.7359 142.965C39.2584 142.775 38.8708 142.487 38.5734 142.099C38.285 141.71 38.0732 141.219 37.938 140.623C37.8119 140.027 37.7488 139.319 37.7488 138.498C37.7488 137.676 37.8164 136.963 37.9515 136.359C38.0867 135.754 38.303 135.253 38.6004 134.856C38.8978 134.45 39.2854 134.152 39.763 133.962C40.2406 133.764 40.8265 133.665 41.5203 133.665C42.2142 133.665 42.8001 133.764 43.2777 133.962C43.7553 134.152 44.1429 134.45 44.4403 134.856C44.7377 135.253 44.9495 135.754 45.0756 136.359C45.2108 136.963 45.2784 137.676 45.2784 138.498C45.2784 139.59 45.1612 140.47 44.9269 141.137C44.7016 141.796 44.3277 142.302 43.8049 142.654L44.9404 144.481L43.5481 145.131L42.345 143.154C42.1737 143.209 41.8989 143.236 41.5203 143.236ZM39.763 141.124C40.0783 141.656 40.6642 141.923 41.5203 141.923C41.9529 141.923 42.3089 141.864 42.5883 141.747C42.8766 141.62 43.102 141.422 43.2642 141.151C43.4355 140.88 43.5525 140.528 43.6157 140.095C43.6877 139.662 43.7238 139.134 43.7238 138.511C43.7238 137.888 43.6877 137.356 43.6157 136.914C43.5436 136.471 43.422 136.106 43.2507 135.817C43.0885 135.528 42.8631 135.316 42.5748 135.181C42.2953 135.045 41.9439 134.978 41.5203 134.978C41.0968 134.978 40.7407 135.045 40.4524 135.181C40.173 135.316 39.9478 135.528 39.7765 135.817C39.6052 136.106 39.4835 136.471 39.4115 136.914C39.3395 137.356 39.3034 137.884 39.3034 138.498C39.3034 139.725 39.4565 140.6 39.763 141.124ZM48.4586 133.814V140.122C48.4586 141.322 49.0893 141.923 50.3512 141.923C51.6128 141.923 52.2437 141.322 52.2437 140.122V133.814H53.7577V140.095C53.7577 141.187 53.4739 141.986 52.9061 142.491C52.3383 142.988 51.4867 143.236 50.3512 143.236C49.2066 143.236 48.3505 142.988 47.7827 142.491C47.2238 141.986 46.9446 141.187 46.9446 140.095V133.814H48.4586ZM56.5208 143.087L57.0209 141.097H60.5762L61.0764 143.087H62.5904L60.2923 133.814H57.3048L55.0202 143.087H56.5208ZM59.1433 135.073L60.2788 139.77H57.3183L58.4674 135.073H59.1433ZM67.5834 143.087L68.0836 141.097H71.6389L72.1391 143.087H73.6531L71.355 133.814H68.3675L66.0829 143.087H67.5834ZM70.206 135.073L71.3415 139.77H68.381L69.5301 135.073H70.206ZM76.4734 143.087V135.127H76.6627L79.5421 143.087H82.1105V133.814H80.61V141.76H80.4072L77.5955 133.814H74.9729V143.087H76.4734ZM84.9432 143.087L85.4434 141.097H88.9987L89.4988 143.087H91.0129L88.7148 133.814H85.7273L83.4427 143.087H84.9432ZM87.5657 135.073L88.7013 139.77H85.7408L86.8898 135.073H87.5657ZM97.5237 141.747H93.8332V133.814H92.3327V143.087H97.5237V141.747ZM102.155 139.269L105.035 133.814H103.358L101.385 137.794L99.4244 133.814H97.7347L100.641 139.269V143.087H102.155V139.269ZM107.912 135.154V143.087H109.426V135.154H112.035V133.814H105.276V135.154H107.912ZM114.784 143.087V133.814H113.283V143.087H114.784ZM120.023 143.236C119.347 143.236 118.784 143.145 118.333 142.965C117.892 142.785 117.536 142.5 117.265 142.112C117.004 141.724 116.819 141.228 116.711 140.623C116.603 140.009 116.549 139.274 116.549 138.416C116.549 137.559 116.603 136.832 116.711 136.237C116.819 135.632 117.004 135.14 117.265 134.761C117.536 134.382 117.892 134.107 118.333 133.935C118.784 133.755 119.347 133.665 120.023 133.665C120.428 133.665 120.848 133.692 121.28 133.746C121.722 133.8 122.186 133.886 122.673 134.003L122.618 135.221C121.834 135.077 121.023 135.005 120.185 135.005C119.78 135.005 119.442 135.059 119.171 135.167C118.91 135.276 118.698 135.465 118.536 135.736C118.374 135.998 118.261 136.35 118.198 136.792C118.135 137.225 118.103 137.776 118.103 138.443C118.103 139.111 118.135 139.666 118.198 140.109C118.261 140.551 118.369 140.907 118.522 141.178C118.676 141.44 118.883 141.625 119.144 141.733C119.415 141.841 119.753 141.895 120.158 141.895C120.978 141.895 121.798 141.828 122.618 141.692L122.659 142.938C121.749 143.136 120.87 143.236 120.023 143.236ZM126.984 134.978C125.84 134.978 125.267 135.379 125.267 136.183C125.267 136.589 125.402 136.882 125.673 137.063C125.943 137.243 126.542 137.46 127.471 137.712C127.93 137.839 128.318 137.974 128.633 138.119C128.958 138.263 129.219 138.434 129.417 138.633C129.616 138.832 129.76 139.071 129.85 139.35C129.94 139.621 129.985 139.946 129.985 140.325C129.985 141.309 129.706 142.04 129.147 142.518C128.597 142.996 127.845 143.236 126.889 143.236C126.502 143.236 126.096 143.213 125.673 143.168C125.258 143.123 124.817 143.055 124.348 142.965L123.861 142.87L124.01 141.665C125.227 141.828 126.155 141.909 126.795 141.909C127.912 141.909 128.471 141.413 128.471 140.42C128.471 140.032 128.345 139.743 128.092 139.553C127.84 139.373 127.272 139.17 126.389 138.944C125.948 138.836 125.56 138.71 125.227 138.565C124.902 138.421 124.632 138.245 124.415 138.037C124.199 137.83 124.037 137.577 123.929 137.279C123.821 136.972 123.767 136.611 123.767 136.196C123.767 135.348 124.037 134.712 124.578 134.287C125.118 133.863 125.875 133.651 126.849 133.651C127.543 133.651 128.363 133.732 129.309 133.895L129.782 133.976L129.661 135.194C129.03 135.122 128.489 135.068 128.038 135.032C127.597 134.996 127.245 134.978 126.984 134.978Z" fill="white"/>
<defs>
<filter id="filter0_i_262_1299" x="35.0742" y="0.0856934" width="95.9248" height="136.088" filterUnits="userSpaceOnUse" color-interpolation-filters="sRGB">
<feFlood flood-opacity="0" result="BackgroundImageFix"/>
<feBlend mode="normal" in="SourceGraphic" in2="BackgroundImageFix" result="shape"/>
<feColorMatrix in="SourceAlpha" type="matrix" values="0 0 0 0 0 0 0 0 0 0 0 0 0 0 0 0 0 0 127 0" result="hardAlpha"/>
<feOffset dy="22"/>
<feGaussianBlur stdDeviation="12.5"/>
<feComposite in2="hardAlpha" operator="arithmetic" k2="-1" k3="1"/>
<feColorMatrix type="matrix" values="0 0 0 0 0 0 0 0 0 0 0 0 0 0 0 0 0 0 0.38 0"/>
<feBlend mode="normal" in2="shape" result="effect1_innerShadow_262_1299"/>
</filter>
</defs>
</svg>
