<svg width="30" height="30" viewBox="0 0 30 30" fill="none" xmlns="http://www.w3.org/2000/svg">
<path opacity="0.12" d="M8.01995 8.71438L4.16894 15.5912C1.97606 19.507 0.879613 21.465 1.06302 23.0683C1.22303 24.467 1.96536 25.7335 3.10763 26.5566C4.41688 27.5 6.66092 27.5 11.149 27.5H18.851C23.3391 27.5 25.5831 27.5 26.8924 26.5566C28.0346 25.7335 28.777 24.467 28.937 23.0683C29.1204 21.465 28.0239 19.507 25.8311 15.5912L21.98 8.71437C19.6988 4.64063 18.5581 2.60377 17.0576 1.92625C15.7495 1.33558 14.2505 1.33558 12.9424 1.92625C11.4419 2.60377 10.3012 4.64064 8.01995 8.71438Z" fill="#E8EAED"/>
<path fill-rule="evenodd" clip-rule="evenodd" d="M16.749 2.6098C15.637 2.10773 14.363 2.10773 13.251 2.6098C12.6929 2.86181 12.1289 3.39902 11.3921 4.47143C10.6584 5.53945 9.82223 7.03101 8.67433 9.08083L4.82332 15.9576C3.71967 17.9284 2.91796 19.3616 2.40999 20.5021C1.90069 21.6455 1.7397 22.3846 1.80816 22.983C1.94417 24.172 2.57515 25.2485 3.54607 25.9481C4.03474 26.3002 4.75823 26.5209 6.00476 26.6352C7.24805 26.7492 8.8902 26.75 11.149 26.75H18.851C21.1098 26.75 22.752 26.7492 23.9952 26.6352C25.2418 26.5209 25.9653 26.3002 26.4539 25.9481C27.4249 25.2485 28.0558 24.172 28.1918 22.983C28.2603 22.3846 28.0993 21.6455 27.59 20.5021C27.082 19.3616 26.2803 17.9284 25.1767 15.9576L21.3257 9.08082C20.1778 7.03101 19.3416 5.53945 18.6079 4.47143C17.8711 3.39902 17.3071 2.86181 16.749 2.6098ZM12.6338 1.2427C14.1381 0.563429 15.8619 0.563429 17.3663 1.2427C18.3086 1.6682 19.0652 2.48819 19.8442 3.62202C20.6215 4.75348 21.4906 6.3054 22.6142 8.31183L22.6143 8.312L22.6144 8.31208L22.6344 8.34792L26.4854 15.2247L26.5054 15.2604L26.5054 15.2604C27.585 17.1882 28.421 18.681 28.9602 19.8918C29.5015 21.1071 29.7971 22.1486 29.6821 23.1535C29.4981 24.7621 28.6444 26.2186 27.3308 27.1651C26.5102 27.7564 25.4571 28.0074 24.1322 28.1289C22.8123 28.25 21.1014 28.25 18.8919 28.25H18.8918H18.8918H18.851H11.149H11.1082H11.1082H11.1081C8.89863 28.25 7.18769 28.25 5.86775 28.1289C4.54292 28.0074 3.48977 27.7564 2.66918 27.1651C1.35557 26.2186 0.501887 24.7621 0.317875 23.1535C0.202925 22.1486 0.498463 21.1071 1.03976 19.8918C1.57906 18.681 2.41505 17.1881 3.49465 15.2603L3.51456 15.2247L7.36557 8.34792L7.38567 8.31203C8.50932 6.3055 9.37843 4.75351 10.1558 3.62202C10.9348 2.48819 11.6914 1.6682 12.6338 1.2427ZM15 10.5C15.4142 10.5 15.75 10.8358 15.75 11.25V16.25C15.75 16.6642 15.4142 17 15 17C14.5858 17 14.25 16.6642 14.25 16.25V11.25C14.25 10.8358 14.5858 10.5 15 10.5ZM15 21.25C15.6904 21.25 16.25 20.6904 16.25 20C16.25 19.3096 15.6904 18.75 15 18.75C14.3096 18.75 13.75 19.3096 13.75 20C13.75 20.6904 14.3096 21.25 15 21.25Z" fill="#E8EAED"/>
</svg>
